# xmcd
#
# Track frame offsets:
#	150
#	9587
#	21062
#	33807
#	46780
#	57137
#	69530
#	82565
#	95167
#	108217
#	123017
#	135367
#	149502
#	166612
#	177702
#	190027
#	203270
#	222634
#	235372
#	248937
#	260725
#	271507
#	282382
#	302635
#	319097
#
# Disc length: 4425 seconds
# Revision: 2
# Processed by: cddbd v1.5.2PL0 Copyright (c) Steve Scherf et al.
# Submitted via: dBpowerAMP V12.0
#
DISCID=50114719
DTITLE=Various Artist - Take Me Home, Country Roads (King Of The Road)
DYEAR=2002
DGENRE=Country
TTITLE0=Billy Troy - Cotton Eyed Joe
TTITLE1=The Fireside Folksingers - Take Me Home, Country Roads
TTITLE2=Hank Snow - I'm Movin' On
TTITLE3=Merle Haggard - Swinging Doors
TTITLE4=Dave Dudley - Six Days On The Road
TTITLE5=Johnny Cash - I Walk The Line
TTITLE6=Pam Gadd - Bury Me Not On The Lone Prairie
TTITLE7=Glen Campbell - By The Time I Get To Phoenix
TTITLE8=Patsy Cline - Life's A Railway To Heaven
TTITLE9=John Brack - Nine Pound Hammer
TTITLE10=Bobby Helms - Fraulein
TTITLE11=Lee Greenwood - Dixie Road
TTITLE12=Ray Price - For The Good Times
TTITLE13=Roger Miller - Kibg Of The Road
TTITLE14=Bobby Bare - 500 Miles Away From Home
TTITLE15=Dolly Parton - Here You Come Again
TTITLE16=Ronnie Milsap - Lost In The Fifties Ronight
TTITLE17=Pam Gadd - Blue Tail Fly
TTITLE18=T. Graham Brown - I Wish That I Could Hurt That Way Again
TTITLE19=Jerry Wallace - If You Leave Me Tonight
TTITLE20=Charlie Rich - There Won't Be Anymore
TTITLE21=Billie Jo Spears - Misty Blue
TTITLE22=Rebecca Holden - One Day At A Time
TTITLE23=Merle Haggard - Hungry Eyes
TTITLE24=Jerry Wallace - The Sound Of Goodbye
EXTD=
EXTT0=
EXTT1=
EXTT2=
EXTT3=
EXTT4=
EXTT5=
EXTT6=
EXTT7=
EXTT8=
EXTT9=
EXTT10=
EXTT11=
EXTT12=
EXTT13=
EXTT14=
EXTT15=
EXTT16=
EXTT17=
EXTT18=
EXTT19=
EXTT20=
EXTT21=
EXTT22=
EXTT23=
EXTT24=
PLAYORDER=
